<?xml version="1.0" encoding="UTF-8"?>
<!DOCTYPE svg PUBLIC "-//W3C//DTD SVG 1.1//EN" "http://www.w3.org/Graphics/SVG/1.1/DTD/svg11.dtd">
<!-- Creator: CorelDRAW (OEM Version) -->
<svg xmlns="http://www.w3.org/2000/svg" xml:space="preserve" width="3.66731in" height="5.65435in" version="1.1" style="shape-rendering:geometricPrecision; text-rendering:geometricPrecision; image-rendering:optimizeQuality; fill-rule:evenodd; clip-rule:evenodd"
viewBox="0 0 3667.31 5654.35"
 xmlns:xlink="http://www.w3.org/1999/xlink"
 xmlns:xodm="http://www.corel.com/coreldraw/odm/2003">
 <defs>
  <style type="text/css">
   <![CDATA[
    .fil0 {fill:white}
    .fil1 {fill:white;fill-rule:nonzero}
   ]]>
  </style>
 </defs>
 <g id="Layer_x0020_1">
  <metadata id="CorelCorpID_0Corel-Layer"/>
  <path class="fil0" d="M2257.93 4664.95l-1126.63 -2318.44c314.3,-3.11 628.55,-6.21 942.85,-9.31l-1210.43 -2337.2 471.88 0c249.47,489.94 969.57,1842.56 1218.96,2332.45 0,0 191.74,0.09 191.78,0l913.16 -2332.45 -1113.77 0 -2545.72 0 0 4664.95 806.35 0 1451.58 0z"/>
  <polygon class="fil0" points="2798.27,2852.76 1854.82,2852.76 2710.8,4664.94 3234.79,4664.94 2492.28,3203.8 2962.34,3203.8 "/>
  <polygon class="fil0" points="2962.34,3203.8 2492.28,3203.8 3234.79,4664.94 3645.03,4664.37 3667.31,4664.37 2962.44,3204.02 "/>
  <polygon class="fil1" points="-0,5641.09 -0,4978.27 124.98,4978.27 124.98,5241.5 142.03,5241.5 356.97,4978.27 517,4978.27 240.51,5304.95 526.47,5641.09 361.71,5641.09 142.03,5372.18 124.98,5372.18 124.98,5641.09 "/>
  <path id="_1" class="fil1" d="M968.67 5654.35c-54.29,0 -100.85,-9.94 -139.67,-29.83 -38.82,-19.89 -68.49,-48.29 -89.01,-85.22 -20.52,-36.93 -30.77,-80.64 -30.77,-131.15l0 -429.89 124.99 0 0 433.68c0,40.4 11.52,72.28 34.56,95.64 23.04,23.36 56.34,35.04 99.9,35.04 43.56,0 76.85,-11.68 99.9,-35.04 23.04,-23.36 34.56,-55.24 34.56,-95.64l0 -433.68 124.99 0 0 429.89c0,50.5 -10.26,94.22 -30.78,131.15 -20.52,36.93 -50.19,65.33 -89.01,85.22 -38.82,19.89 -85.38,29.83 -139.67,29.83z"/>
  <polygon id="_2" class="fil1" points="1469.57,5641.09 1469.57,4978.27 1707.24,4978.27 1838.86,5555.87 1855.91,5555.87 1855.91,4978.27 1979,4978.27 1979,5641.09 1741.33,5641.09 1609.71,5063.49 1592.67,5063.49 1592.67,5641.09 "/>
  <polygon id="_3" class="fil1" points="2224.25,5641.09 2224.25,4978.27 2349.24,4978.27 2349.24,5641.09 "/>
  <polygon id="_4" class="fil1" points="2594.48,5641.09 2594.48,4978.27 3020.59,4978.27 3020.59,5091.9 2719.47,5091.9 2719.47,5250.03 2994.07,5250.03 2994.07,5363.65 2719.47,5363.65 2719.47,5527.47 3026.27,5527.47 3026.27,5641.09 "/>
  <polygon id="_5" class="fil1" points="3239.32,5641.09 3239.32,4978.27 3364.31,4978.27 3364.31,5527.47 3667.31,5527.47 3667.31,5641.09 "/>
 </g>
</svg>
